<?xml version="1.0" encoding="utf-8"?>
<!-- Generator: Adobe Illustrator 24.1.1, SVG Export Plug-In . SVG Version: 6.00 Build 0)  -->
<svg version="1.1" id="Calque_1" xmlns="http://www.w3.org/2000/svg" xmlns:xlink="http://www.w3.org/1999/xlink" x="0px" y="0px"
	 viewBox="0 0 87.3 80" style="enable-background:new 0 0 87.3 80;" xml:space="preserve">
<style type="text/css">
	.st0{fill:#FFFFFF;}
</style>
<g>
	<path class="st0" d="M71.5,39h-4.1c-0.2-5.9-2.6-11.2-6.3-15.2l2.9-2.9l2.8,2.8l1.4-1.4l-7.1-7.1l-1.4,1.4l2.8,2.8l-2.9,2.9
		c-4.1-3.7-9.4-6.1-15.3-6.4v-4h4v-2h-10v2h4v4c-5.9,0.2-11.2,2.6-15.2,6.3l-2.8-2.8l2.8-2.8l-1.4-1.4l-7.1,7.1l1.4,1.4l2.8-2.8
		l2.8,2.8c-3.7,4-6.1,9.4-6.3,15.2h-4v-4h-2v10h2v-4h4c0.2,5.9,2.6,11.2,6.3,15.2L23,59.1l-2.8-2.8l-1.4,1.4l7.1,7.1l1.4-1.4
		l-2.8-2.8l2.9-2.9c4,3.7,9.4,6.1,15.2,6.3v4h-4v2h10v-2h-4v-4c5.9-0.2,11.2-2.6,15.2-6.3l2.9,2.9l-2.8,2.8l1.4,1.4l7.1-7.1
		l-1.4-1.4L64,59.1l-2.9-2.9c3.7-4,6.1-9.4,6.3-15.2h4.1v4h2V35h-2L71.5,39L71.5,39z M43.5,62c-12.1,0-22-9.9-22-22s9.9-22,22-22
		s22,9.9,22,22S55.6,62,43.5,62z"/>
	<path class="st0" d="M43.5,35c-2.8,0-5,2.2-5,5s2.2,5,5,5s5-2.2,5-5S46.2,35,43.5,35z M43.5,43c-1.7,0-3-1.3-3-3s1.3-3,3-3
		s3,1.3,3,3S45.1,43,43.5,43z"/>
	<path class="st0" d="M43.5,20c-2.8,0-5,1.5-5,3.5c0,1.7,1.7,3.1,4,3.4V29h2v-2.1c2.3-0.3,4-1.7,4-3.4C48.5,21.5,46.3,20,43.5,20z
		 M43.5,25c-1.7,0-3-0.8-3-1.5s1.3-1.5,3-1.5s3,0.8,3,1.5S45.2,25,43.5,25z"/>
	<path class="st0" d="M44.5,53.1V51h-2v2.1c-2.3,0.3-4,1.7-4,3.4c0,2,2.2,3.5,5,3.5s5-1.5,5-3.5C48.5,54.8,46.8,53.4,44.5,53.1z
		 M43.5,58c-1.7,0-3-0.8-3-1.5s1.3-1.5,3-1.5s3,0.8,3,1.5S45.2,58,43.5,58z"/>
	<path class="st0" d="M30.4,41h2.1v-2h-2.1c-0.3-2.3-1.7-4-3.4-4c-2,0-3.5,2.2-3.5,5s1.5,5,3.5,5C28.7,45,30.1,43.3,30.4,41z M27,43
		c-0.7,0-1.5-1.3-1.5-3s0.8-3,1.5-3s1.5,1.3,1.5,3S27.7,43,27,43z"/>
	<path class="st0" d="M56.6,39h-2.1v2h2.1c0.3,2.3,1.7,4,3.4,4c2,0,3.5-2.2,3.5-5S62,35,60,35C58.3,35,56.9,36.7,56.6,39z M60,37
		c0.7,0,1.5,1.3,1.5,3s-0.8,3-1.5,3s-1.5-1.3-1.5-3S59.3,37,60,37z"/>
	<path class="st0" d="M36,27.8c0.3-1.2,0-2.3-0.7-3l0,0l0,0c-0.7-0.7-1.8-1-3-0.7c-1,0.2-2.1,0.9-3,1.8s-1.5,2-1.8,3
		c-0.3,1.2,0,2.3,0.7,3c0.5,0.5,1.3,0.8,2.1,0.8c0.3,0,0.6,0,0.9-0.1c0.8-0.2,1.5-0.6,2.2-1.1l1.5,1.5l1.4-1.4L35,30.1
		C35.5,29.3,35.9,28.6,36,27.8z M30.9,30.6c-0.5,0.1-0.9,0.1-1.1-0.2c-0.2-0.2-0.3-0.6-0.2-1.1c0.2-0.7,0.6-1.4,1.2-2s1.4-1.1,2-1.2
		c0.2,0,0.3-0.1,0.5-0.1c0.3,0,0.5,0.1,0.7,0.2l0,0c0.2,0.2,0.3,0.6,0.2,1.1c-0.2,0.7-0.6,1.4-1.2,2C32.3,30,31.5,30.5,30.9,30.6z"
		/>
	<path class="st0" d="M55.7,47.4c-0.8,0.2-1.5,0.6-2.2,1.1L52,47.1l-1.4,1.4L52,50c-0.5,0.7-0.9,1.5-1.1,2.2c-0.3,1.2,0,2.3,0.7,3
		l0,0l0,0c0.5,0.5,1.3,0.8,2.1,0.8c0.3,0,0.6,0,0.9-0.1c1-0.2,2.1-0.9,3-1.8s1.5-2,1.8-3c0.3-1.2,0-2.3-0.7-3
		C58,47.4,56.9,47.2,55.7,47.4z M57.4,50.7c-0.2,0.7-0.6,1.4-1.2,2s-1.4,1.1-2,1.2c-0.5,0.1-0.9,0.1-1.1-0.2l0,0
		c-0.2-0.2-0.3-0.6-0.2-1.1c0.2-0.7,0.6-1.4,1.2-2s1.4-1.1,2-1.2c0.2,0,0.3-0.1,0.5-0.1c0.3,0,0.5,0.1,0.7,0.2
		C57.5,49.8,57.6,50.2,57.4,50.7z"/>
	<path class="st0" d="M35,47.1l-1.5,1.5c-0.7-0.5-1.5-0.9-2.2-1.1c-1.2-0.3-2.3,0-3,0.7l0,0l0,0c-0.7,0.7-1,1.8-0.7,3
		c0.2,1,0.9,2.1,1.8,3s2,1.5,3,1.8C32.7,56,33,56,33.3,56c0.8,0,1.6-0.3,2.1-0.8c0.7-0.7,1-1.8,0.7-3c-0.2-0.8-0.6-1.5-1.1-2.2
		l1.5-1.5L35,47.1z M33.9,53.8c-0.2,0.2-0.6,0.3-1.1,0.2c-0.7-0.2-1.4-0.6-2-1.2s-1.1-1.4-1.2-2c-0.1-0.5-0.1-0.9,0.2-1.1l0,0
		c0.1-0.1,0.4-0.2,0.7-0.2c0.1,0,0.3,0,0.5,0.1c0.7,0.2,1.4,0.6,2,1.2c0.6,0.6,1.1,1.4,1.2,2C34.2,53.2,34.2,53.6,33.9,53.8z"/>
	<path class="st0" d="M54.6,24.1c-1.2-0.3-2.3,0-3,0.7c-0.7,0.7-1,1.8-0.7,3c0.2,0.8,0.6,1.5,1.1,2.2l-1.5,1.5l1.4,1.4l1.5-1.5
		c0.7,0.5,1.5,0.9,2.2,1.1c0.3,0.1,0.6,0.1,0.9,0.1c0.8,0,1.6-0.3,2.1-0.8l0,0l0,0c0.7-0.7,1-1.8,0.7-3c-0.2-1-0.9-2.1-1.8-3
		S55.7,24.4,54.6,24.1z M57.3,30.5L57.3,30.5c-0.2,0.2-0.6,0.3-1.1,0.2c-0.7-0.2-1.4-0.6-2-1.2s-1.1-1.4-1.2-2
		c-0.1-0.5-0.1-0.9,0.2-1.1c0.1-0.1,0.4-0.2,0.7-0.2c0.1,0,0.3,0,0.5,0.1c0.7,0.2,1.4,0.6,2,1.2s1.1,1.4,1.2,2
		C57.6,29.8,57.5,30.2,57.3,30.5z"/>
</g>
</svg>
