<?xml version="1.0" encoding="utf-8"?>
<!-- Generator: Adobe Illustrator 24.1.1, SVG Export Plug-In . SVG Version: 6.00 Build 0)  -->
<svg version="1.1" id="Calque_1" xmlns="http://www.w3.org/2000/svg" xmlns:xlink="http://www.w3.org/1999/xlink" x="0px" y="0px"
	 viewBox="0 0 87.3 80" style="enable-background:new 0 0 87.3 80;" xml:space="preserve">
<style type="text/css">
	.st0{fill-rule:evenodd;clip-rule:evenodd;}
</style>
<g transform="translate(0,-952.36218)">
	<path class="st0" d="M110.2,958.1c-1.5,0-3,0.7-3.7,2.3c-1.5,3.3-4.5,9.7-7,15.8c-1.3,3.1-2.4,6.1-3.2,8.6c-0.8,2.5-1.2,4.5-0.8,6
		c1.2,4.4,3.1,7.7,4.7,11.3c1.5,3.5,2.7,7.4,2.5,13.2c-1.3,0.3-2.6,0.7-3.9,1.1c-0.4,0.1-0.7,0.6-0.6,1c0,0,0,0,0,0l2.3,8.6
		c0.1,0.4,0.6,0.7,1,0.6c0,0,0,0,0,0l26.1-7c0.4-0.1,0.7-0.6,0.6-1c0,0,0,0,0,0l-2.3-8.7c-0.1-0.4-0.6-0.7-1-0.6c0,0,0,0,0,0l-3.8,1
		c0.6-3.1,0.8-7.7,0.1-10.6c0,0,0,0,0,0c-0.8-2.8-1.9-4.7-3-6.3c-1.1-1.6-2-2.9-2.5-4.9l-1.8-7.6c-0.4-1.7-2.1-2.8-3.9-2.6l4-15.3
		c0.3-1.3,0.1-2.4-0.4-3.3c-0.5-0.9-1.4-1.4-2.3-1.6C111.1,958.1,110.6,958.1,110.2,958.1L110.2,958.1z M110.2,959.7
		c0.3,0,0.5,0,0.8,0.1c0.6,0.2,1.1,0.5,1.3,0.9c0.3,0.5,0.4,1.1,0.2,2l-4.3,16.3c-1.3,0.8-1.9,2.4-1.6,3.9l3.2,14.6
		c0,0.5,0.4,0.8,0.9,0.8c0.5,0,0.8-0.4,0.8-0.9c0-0.1,0-0.2,0-0.2l-3.1-14.6c0,0,0,0,0,0c-0.2-1.1,0.4-2.2,1.5-2.5
		c1.2-0.3,2.3,0.3,2.5,1.3l1.8,7.7c0,0,0,0,0,0c0.6,2.2,1.7,3.8,2.7,5.3c1,1.6,2.1,3.2,2.8,5.8c0.7,2.6,0.4,8-0.2,10.6l-4.6,1.2
		c-0.5,0.1-0.8,0.5-0.7,0.9c0.1,0.5,0.5,0.8,0.9,0.7c0.1,0,0.2,0,0.2-0.1l5-1.3l4.4-1.2l1.9,7.1l-24.5,6.6l-1.9-7.1
		c3.1-0.9,6.1-1.7,9.2-2.5c0.4-0.1,0.7-0.6,0.6-1c-0.1-0.4-0.6-0.7-1-0.6c-1.5,0.4-3,0.8-4.5,1.2c0.1-5.8-1.1-9.9-2.7-13.4
		c-1.6-3.7-3.5-6.8-4.6-11c-0.2-0.7,0.1-2.7,0.8-5.2c0.7-2.4,1.9-5.4,3.1-8.4c2.5-6.1,5.5-12.4,7-15.8
		C108.4,960.2,109.3,959.7,110.2,959.7L110.2,959.7z"/>
	<path class="st0" d="M151.3,958.1c-0.4,0-0.8,0-1.2,0.2c-0.9,0.2-1.8,0.8-2.3,1.6c-0.5,0.9-0.7,2-0.4,3.3l4,15.3
		c-1.7-0.1-3.4,0.9-3.9,2.6l-1.7,7.6c-0.5,1.9-1.5,3.3-2.5,4.9c-1.1,1.6-2.2,3.5-3,6.3c0,0,0,0,0,0c-0.8,2.9-0.6,7.5,0.1,10.6
		l-3.8-1c-0.4-0.1-0.9,0.2-1,0.6c0,0,0,0,0,0l-2.3,8.7c-0.1,0.4,0.2,0.9,0.6,1c0,0,0,0,0,0l26.1,7c0.4,0.1,0.9-0.1,1-0.6
		c0,0,0,0,0,0l2.3-8.6c0.1-0.4-0.1-0.9-0.6-1c0,0,0,0,0,0c-1.3-0.4-2.6-0.7-3.9-1.1c-0.2-5.9,1-9.7,2.5-13.2
		c1.6-3.6,3.5-6.8,4.7-11.3c0.4-1.5,0-3.5-0.8-6c-0.8-2.5-1.9-5.5-3.2-8.6c-2.5-6.1-5.6-12.5-7-15.8
		C154.3,958.8,152.8,958.1,151.3,958.1z M151.3,959.7c0.9,0,1.8,0.4,2.2,1.3c1.5,3.4,4.5,9.7,7,15.8c1.3,3,2.4,6,3.1,8.4
		c0.7,2.4,1,4.5,0.8,5.2c-1.1,4.2-3,7.3-4.6,11c-1.5,3.5-2.7,7.6-2.6,13.4c-1.5-0.4-3-0.8-4.5-1.2c-0.4-0.1-0.9,0.2-1,0.6
		c-0.1,0.4,0.2,0.9,0.6,1c3.1,0.8,6.1,1.6,9.2,2.5l-1.9,7.1l-24.5-6.6l1.9-7.1l4.4,1.2l5,1.3c0.4,0.2,0.9,0,1.1-0.4
		c0.2-0.4,0-0.9-0.4-1.1c-0.1,0-0.2-0.1-0.2-0.1l-4.6-1.2c-0.6-2.6-0.9-8.1-0.3-10.6c0.7-2.6,1.7-4.3,2.8-5.8c1-1.6,2.1-3.1,2.7-5.3
		c0,0,0,0,0,0l1.7-7.7c0.2-1,1.4-1.6,2.6-1.3c1.1,0.3,1.8,1.4,1.5,2.5l-3.2,14.6c-0.1,0.4,0.2,0.9,0.6,1s0.9-0.2,1-0.6l3.2-14.6
		c0.3-1.5-0.3-3-1.6-3.9l-4.3-16.3c-0.2-0.9-0.1-1.5,0.2-2c0.3-0.4,0.7-0.8,1.3-0.9C150.8,959.8,151,959.7,151.3,959.7L151.3,959.7z
		"/>
	<path class="st0" d="M126.8,970.3c-0.5,0-0.8,0.4-0.8,0.8v6.1h-6.1c-0.5,0-0.8,0.4-0.8,0.8v8c0,0.5,0.4,0.8,0.8,0.8h6.1v6.1
		c0,0.5,0.4,0.8,0.8,0.8h8c0.5,0,0.8-0.4,0.8-0.8v-6.1h6.1c0.5,0,0.8-0.4,0.8-0.8v-8c0-0.5-0.4-0.8-0.8-0.8h-6.1v-6.1
		c0-0.5-0.4-0.8-0.8-0.8C134.8,970.3,126.8,970.3,126.8,970.3z"/>
</g>
<path d="M23.8,32.9c-3.6,2.7-5.7,6.9-5.7,11.4v19.9c0,4.7,3.8,8.5,8.5,8.5h34.1c4.7,0,8.5-3.8,8.5-8.5V44.3c0-4.5-2.1-8.7-5.7-11.4
	l-5.7-4.3v-4.3c3.1,0,5.7-2.5,5.7-5.7v-2.8c0-4.7-3.8-8.5-8.5-8.5H32.3c-4.7,0-8.5,3.8-8.5,8.5v2.8c0,3.1,2.5,5.7,5.7,5.7v4.3
	L23.8,32.9z M29.4,15.9c0-1.6,1.3-2.8,2.8-2.8H55c1.6,0,2.8,1.3,2.8,2.8v2.8H29.4V15.9z M34,32.3c0.7-0.5,1.1-1.4,1.1-2.3v-5.7h17
	v5.7c0,0.9,0.4,1.7,1.1,2.3l6.8,5.1c2.1,1.6,3.4,4.1,3.4,6.8v19.9c0,1.6-1.3,2.8-2.8,2.8H26.6c-1.6,0-2.8-1.3-2.8-2.8V44.3
	c0-2.7,1.3-5.2,3.4-6.8L34,32.3z"/>
<path d="M35.1,42.8h5.7v5.7c0,1.6,1.3,2.8,2.8,2.8c1.6,0,2.8-1.3,2.8-2.8v-5.7h5.7c1.6,0,2.8-1.3,2.8-2.8s-1.3-2.8-2.8-2.8h-5.7
	v-5.7c0-1.6-1.3-2.8-2.8-2.8c-1.6,0-2.8,1.3-2.8,2.8v5.7h-5.7c-1.6,0-2.8,1.3-2.8,2.8S33.6,42.8,35.1,42.8z"/>
</svg>
