<?xml version="1.0" encoding="utf-8"?>
<!-- Generator: Adobe Illustrator 24.1.1, SVG Export Plug-In . SVG Version: 6.00 Build 0)  -->
<svg version="1.1" id="Calque_1" xmlns="http://www.w3.org/2000/svg" xmlns:xlink="http://www.w3.org/1999/xlink" x="0px" y="0px"
	 viewBox="0 0 87.3 80" style="enable-background:new 0 0 87.3 80;" xml:space="preserve">
<g>
	<g>
		<path d="M48.8,42.6H38.4c-0.7,0-1.3,0.6-1.3,1.3c0,0.7,0.6,1.3,1.3,1.3h10.4c0.7,0,1.3-0.6,1.3-1.3C50.1,43.2,49.5,42.6,48.8,42.6
			z M72.2,63.4h-1.3v-6.5c0-4.6-3.4-8.3-7.8-9V28.3c0-10.7-8.7-19.5-19.5-19.5s-19.5,8.7-19.5,19.5v19.6c-4.4,0.6-7.8,4.4-7.8,9v6.5
			h-1.3c-0.7,0-1.3,0.6-1.3,1.3v5.2c0,0.7,0.6,1.3,1.3,1.3h57.1c0.7,0,1.3-0.6,1.3-1.3v-5.2C73.5,63.9,72.9,63.4,72.2,63.4z
			 M63.1,50.5c3,0.6,5.2,3.2,5.2,6.4v6.5h-5.2V50.5z M26.8,28.3c0-9.3,7.6-16.9,16.9-16.9S60.5,19,60.5,28.3v35H26.8V28.3z M19,56.9
			c0-3.1,2.2-5.8,5.2-6.4v12.8H19V56.9z M70.9,68.6H16.4V66h54.5V68.6z M51.4,27H35.8c-0.7,0-1.3,0.6-1.3,1.3c0,0.7,0.6,1.3,1.3,1.3
			h15.6c0.7,0,1.3-0.6,1.3-1.3C52.7,27.6,52.1,27,51.4,27z M51.4,34.8H35.8c-0.7,0-1.3,0.6-1.3,1.3c0,0.7,0.6,1.3,1.3,1.3h15.6
			c0.7,0,1.3-0.6,1.3-1.3C52.7,35.4,52.1,34.8,51.4,34.8z"/>
	</g>
</g>
</svg>
